<?xml version="1.0" encoding="UTF-8" standalone="no"?>
<svg
   xmlns:dc="http://purl.org/dc/elements/1.1/"
   xmlns:cc="http://creativecommons.org/ns#"
   xmlns:rdf="http://www.w3.org/1999/02/22-rdf-syntax-ns#"
   xmlns:svg="http://www.w3.org/2000/svg"
   xmlns="http://www.w3.org/2000/svg"
   xmlns:sodipodi="http://sodipodi.sourceforge.net/DTD/sodipodi-0.dtd"
   xmlns:inkscape="http://www.inkscape.org/namespaces/inkscape"
   width="1024"
   height="1024"
   viewBox="0 0 768.09676 768.09676"
   version="1.1"
   id="svg3"
   sodipodi:docname="logo_clean.svg"
   inkscape:version="0.92.3 (2405546, 2018-03-11)"
   inkscape:export-filename="/media/ranjian0/Backup/Workspace/projects/building_tools_releases/icon assets/logopath_monochrome.png"
   inkscape:export-xdpi="300"
   inkscape:export-ydpi="300">
  <metadata
     id="metadata9">
    <rdf:RDF>
      <cc:Work
         rdf:about="">
        <dc:format>image/svg+xml</dc:format>
        <dc:type
           rdf:resource="http://purl.org/dc/dcmitype/StillImage" />
        <dc:title></dc:title>
      </cc:Work>
    </rdf:RDF>
  </metadata>
  <defs
     id="defs7" />
  <sodipodi:namedview
     pagecolor="#ffffff"
     bordercolor="#666666"
     borderopacity="1"
     objecttolerance="10"
     gridtolerance="10"
     guidetolerance="10"
     inkscape:pageopacity="0"
     inkscape:pageshadow="2"
     inkscape:window-width="1364"
     inkscape:window-height="743"
     id="namedview5"
     showgrid="false"
     units="px"
     inkscape:showpageshadow="false"
     inkscape:pagecheckerboard="true"
     inkscape:zoom="0.2408579"
     inkscape:cx="339.13703"
     inkscape:cy="332.65285"
     inkscape:window-x="0"
     inkscape:window-y="0"
     inkscape:window-maximized="1"
     inkscape:current-layer="svg3" />
  <circle
     style="opacity:1;fill:#e87d0d;fill-opacity:1;fill-rule:nonzero;stroke:none;stroke-width:3.51967525;stroke-miterlimit:4;stroke-dasharray:none;stroke-opacity:1"
     id="path830"
     cx="384.04837"
     cy="384.04837"
     r="376.56174" />
  <path
     id="Selection"
     d="m 218.85633,229.555 c 0,0 0,64.19393 0,64.19393 0,0 -49.6433,0 -49.6433,0 -10.2967,0.0171 -13.64335,3.13266 -13.6947,13.6947 0,0 0,51.35513 0,51.35513 0,0 0,214.83569 0,214.83569 0.0171,9.63764 1.68616,13.64335 11.98286,13.69469 0,0 56.49066,0 56.49066,0 38.75601,0 83.42643,3.38089 113.83723,-25.7118 17.76888,-16.99855 24.81309,-39.14974 22.3994,-63.30376 -1.43794,-14.32809 -4.35663,-25.62623 -12.78743,-37.66045 -7.18973,-10.27103 -16.47644,-17.67473 -27.58627,-23.31523 -5.22967,-2.66191 -10.52781,-5.29815 -16.26246,-6.64193 9.47502,-6.31669 16.60482,-11.36661 22.71609,-21.39797 6.88159,-11.3067 8.14834,-18.83879 9.02994,-31.66902 0,0 0.71042,-6.84734 0.71042,-6.84734 0,0 -0.64194,-5.99143 -0.64194,-5.99143 0,0 -1.38659,-11.98288 -1.38659,-11.98288 -2.67046,-13.08699 -10.56204,-27.34661 -20.3024,-36.42791 -14.68757,-13.6947 -39.74888,-22.59626 -59.76883,-22.63049 0,0 -12.83879,0 -12.83879,0 0,0 0,-64.19393 0,-64.19393 0,0 240.51325,0 240.51325,0 0,0 0,360.34191 0,360.34191 0,0 0,57.34657 0,57.34657 -0.0171,8.62766 -0.5649,7.90013 -12.83879,11.48643 -5.26389,1.54922 -19.43792,4.92153 -22.24533,9.14978 -1.9087,2.85877 -1.71184,6.05134 -1.7204,9.32095 -0.009,7.04422 -2.45648,18.88158 5.99144,21.56917 1.99429,0.63338 3.93722,0.65906 5.99143,0.68472 0,0 95.00701,0 95.00701,0 8.25107,-0.0171 13.55776,-0.59913 13.69471,-10.27102 0,0 0,-13.69471 0,-13.69471 -0.0428,-2.69614 -0.0942,-5.21254 -1.7204,-7.52352 -2.95293,-4.21112 -17.71752,-7.92581 -23.10125,-9.47503 -11.28957,-3.24393 -11.96576,-2.77318 -11.98287,-11.24677 0,0 0,-417.68848 0,-417.68848 0,0 35.9486,0 35.9486,0 0,0 0,11.12694 0,11.12694 0.0171,9.41512 1.53209,13.5492 11.98286,13.6947 0,0 58.2025,0 58.2025,0 2.13979,0 4.81027,0.0856 6.84735,-0.55634 9.14122,-2.90157 6.84735,-16.62194 6.84735,-24.2653 5.70899,0 21.37231,1.26676 25.34377,-2.26819 2.68758,-2.39657 2.85021,-5.52923 2.90157,-8.85876 0,0 0,-19.68613 0,-19.68613 -0.0171,-12.71897 -5.35806,-15.20113 -14.55063,-22.43364 0,0 -17.9743,-14.07132 -17.9743,-14.07132 0,0 -87.30375,-68.430707 -87.30375,-68.430707 0,0 -17.97429,-14.037071 -17.97429,-14.037071 -3.4408,-2.704706 -9.85163,-7.883025 -13.69471,-9.432232 -3.15833,-1.27532 -6.89014,-1.651926 -10.27102,-1.694722 0,0 -19.68614,0 -19.68614,0 -12.68472,0.154066 -30.35089,6.419396 -42.79595,10.253907 0,0 -60.77025,18.231074 -60.77025,18.231074 0,0 -203.70873,61.027021 -203.70873,61.027021 0,0 -73.60903,21.99713 -73.60903,21.99713 -5.76034,1.72895 -18.154052,4.22823 -21.320954,9.26103 -1.609119,2.55921 -1.754633,5.55492 -1.788864,8.4736 0,0 0,17.9743 0,17.9743 0.0085,3.54351 -0.145514,7.92581 2.310984,10.79314 2.319535,2.69615 5.537797,2.85877 8.815954,2.90157 0,0 19.68614,0 19.68614,0 0,0 96.71885,0 96.71885,0 z M 492.75043,92.607959 c 0,0 0,94.151091 0,94.151091 0,0 -312.41045,0 -312.41045,0 0,0 36.80451,-11.48643 36.80451,-11.48643 0,0 65.90577,-19.68614 65.90577,-19.68614 0,0 124.96418,-37.54061 124.96418,-37.54061 0,0 84.73599,-25.437911 84.73599,-25.437911 z m 25.67757,5.135512 c 0,0 65.90576,51.534879 65.90576,51.534879 0,0 47.07555,36.62478 47.07555,36.62478 0,0 -11.98287,0.85592 -11.98287,0.85592 0,0 -23.10982,0 -23.10982,0 0,0 -78.74454,0 -78.74454,0 0,0 0,-61.62618 0,-61.62618 0,-5.52066 -0.75321,-23.3409 0.85592,-27.389399 z M 209.63809,341.33802 c 4.21111,-0.98431 13.82309,-0.51355 18.63336,-0.51355 16.18542,0 32.31094,-1.18117 45.32946,10.5278 14.99571,13.48928 13.18972,47.71749 -12.80455,57.8858 -14.97858,5.86305 -28.84447,5.22112 -44.50779,5.19544 -7.00141,-0.009 -9.30383,0.11126 -9.4151,-7.70327 0,0 0,-46.21964 0,-46.21964 0,-3.22681 -0.39372,-14.71324 0.63338,-16.98998 0.70185,-1.56634 0.95862,-1.33524 2.13124,-2.1826 z m 1.54922,120.35078 c 0,0 23.07556,0 23.07556,0 20.63622,-0.17975 47.28098,-0.35093 63.26098,14.61909 15.86874,14.86731 12.80456,40.3737 -4.20256,53.02419 -11.3067,8.41368 -28.97285,10.89585 -42.79595,10.92152 0,0 -33.38085,0 -33.38085,0 -2.73894,0 -7.38657,0.38517 -9.14977,-2.14836 -1.66049,-2.39657 -1.12125,-12.49641 -1.12125,-15.82593 0,0 0,-40.2282 0,-40.2282 0,-3.63766 -0.59058,-15.16689 1.00142,-17.77744 1.00998,-1.65193 1.72896,-1.70327 3.31242,-2.58487 z"
     inkscape:connector-curvature="0"
     style="fill:#fffefe;fill-opacity:1;stroke:none;stroke-width:0.85591906;stroke-opacity:1" />
</svg>
